<?xml version="1.0" encoding="utf-8"?>
<!-- Generator: Adobe Illustrator 25.0.0, SVG Export Plug-In . SVG Version: 6.00 Build 0)  -->
<svg version="1.1" id="Layer_1" xmlns="http://www.w3.org/2000/svg" xmlns:xlink="http://www.w3.org/1999/xlink" x="0px" y="0px"
	 viewBox="0 0 500 500" enable-background="new 0 0 500 500" xml:space="preserve">
<g>
	<polygon fill-rule="evenodd" clip-rule="evenodd" fill="#F7BC63" points="250.289,49.725 312.237,188.894 462.184,205.852 
		351.026,308.182 381.132,457.877 250.289,382.445 118.868,457.877 149.553,308.182 37.816,205.852 187.763,188.894 	"/>
	<path fill="#FFE08B" d="M264.184,43.293l58.474,130.983L497.5,194.157L367.237,314.03l35.895,173.669l-152.842-87.712
		L96.868,487.699l35.895-173.669L2.5,194.157l174.842-19.881l72.947-161.975L264.184,43.293z M298.342,195.326L250.289,87.148
		l-52.105,115.78L73.132,216.962l93.211,85.958L140.868,427.47l109.421-63.152l109.421,63.152l-25.474-124.551l92.632-85.958
		l-125.053-14.034L298.342,195.326z"/>
</g>
</svg>
