<?xml version="1.0" encoding="utf-8"?>
<!-- Generator: Adobe Illustrator 25.0.0, SVG Export Plug-In . SVG Version: 6.00 Build 0)  -->
<svg version="1.1" id="Layer_1" xmlns="http://www.w3.org/2000/svg" xmlns:xlink="http://www.w3.org/1999/xlink" x="0px" y="0px"
	 viewBox="0 0 500 500" enable-background="new 0 0 500 500" xml:space="preserve">
<g>
	<path fill-rule="evenodd" clip-rule="evenodd" fill="#FFFFFF" d="M62.994,345.324c-77.435-78.211-77.435-205.955,0-284.166
		s203.913-78.211,281.348,0c65.562,66.218,75.887,165.285,29.942,242.453c0,0-3.614,5.735,1.032,9.907l101.698,102.717
		c11.357,11.471,18.068,26.07,18.068,39.627v0.521c0,9.907-3.614,19.292-11.357,26.592l-3.097,3.128
		c-17.552,18.249-45.945,13.557-66.078-6.778L313.368,376.608c-4.646-4.693-10.325-1.043-10.325-1.043
		C226.64,421.971,128.556,411.542,62.994,345.324L62.994,345.324z M307.689,308.304c57.302-57.876,57.302-152.25,0-210.126
		s-150.741-57.876-208.043,0s-57.302,152.25,0,210.126S250.387,366.18,307.689,308.304L307.689,308.304z"/>
	<path fill-rule="evenodd" clip-rule="evenodd" fill="#FFFFFF" d="M294.783,193.595c2.581,0,5.162-0.521,8.26-1.564
		c10.325-4.171,14.971-16.685,10.841-27.113c-27.877-66.218-103.763-97.503-169.841-69.347
		c-10.325,4.693-14.971,16.685-10.841,27.113c4.646,10.428,16.52,15.642,26.844,10.95c44.912-18.771,97.052,2.086,115.637,47.448
		C279.296,188.902,287.04,193.595,294.783,193.595L294.783,193.595z"/>
</g>
</svg>
