<?xml version="1.0" encoding="utf-8"?>
<!-- Generator: Adobe Illustrator 25.0.0, SVG Export Plug-In . SVG Version: 6.00 Build 0)  -->
<svg version="1.1" id="Layer_1" xmlns="http://www.w3.org/2000/svg" xmlns:xlink="http://www.w3.org/1999/xlink" x="0px" y="0px"
	 viewBox="0 0 315 500" enable-background="new 0 0 315 500" xml:space="preserve">
<g>
	<path fill="#141515" d="M72.766,13.847C54.473-2.496,27.034-1.075,10.853,17.4C-4.625,35.876-3.218,63.589,15.074,79.933
		l189.96,169.834L15.074,420.311c-18.292,16.344-19.7,44.057-4.221,62.533c16.182,17.765,43.62,19.897,61.913,3.553l223.027-200.389
		c2.814-1.421,5.628-3.553,7.739-6.395c7.739-8.527,11.257-19.186,11.257-29.135v-0.711c0-10.659-3.518-20.607-11.257-29.135
		c-2.111-2.842-4.925-4.974-7.739-7.106L72.766,13.847z"/>
</g>
</svg>
