<?xml version="1.0" encoding="utf-8"?>
<!-- Generator: Adobe Illustrator 25.0.0, SVG Export Plug-In . SVG Version: 6.00 Build 0)  -->
<svg version="1.1" id="Layer_1" xmlns="http://www.w3.org/2000/svg" xmlns:xlink="http://www.w3.org/1999/xlink" x="0px" y="0px"
	 viewBox="0 0 500 500" enable-background="new 0 0 500 500" xml:space="preserve">
<g>
	<path fill-rule="evenodd" clip-rule="evenodd" fill="#AB96F2" d="M250,497.5c136.272,0,247.5-111.228,247.5-247.5
		S386.272,2.5,250,2.5S2.5,113.728,2.5,250S113.728,497.5,250,497.5L250,497.5z"/>
	<path fill-rule="evenodd" clip-rule="evenodd" fill="#FFFFFF" d="M248.895,193.65c15.837-16.574,27.254-31.306,51.931-34.252
		c46.406-5.156,89.129,42.355,65.558,89.129c-6.629,13.259-20.257,29.096-35.357,44.933c-16.205,16.942-34.621,33.516-47.511,46.406
		l-34.621,34.621l-29.096-27.991c-34.621-33.147-90.971-75.134-92.812-127.433c-1.473-36.462,27.254-59.665,60.402-59.297
		C217.221,160.134,229.375,174.866,248.895,193.65L248.895,193.65z"/>
</g>
</svg>
